<svg xmlns="http://www.w3.org/2000/svg" xmlns:xlink="http://www.w3.org/1999/xlink" width="1024" zoomAndPan="magnify" viewBox="0 0 768 775.92" height="1024" preserveAspectRatio="xMidYMid meet" version="1.0"><defs><clipPath id="afad330399"><path d="M 58 13 L 738 13 L 738 760 L 58 760 Z M 58 13 " clip-rule="nonzero"/></clipPath><clipPath id="85b07d9080"><path d="M -119.285156 179.855469 L 649.949219 -92.175781 L 905.976562 631.808594 L 136.746094 903.839844 Z M -119.285156 179.855469 " clip-rule="nonzero"/></clipPath><clipPath id="1e03d68d5b"><path d="M -119.285156 179.855469 L 649.949219 -92.175781 L 905.976562 631.808594 L 136.746094 903.839844 Z M -119.285156 179.855469 " clip-rule="nonzero"/></clipPath></defs><g clip-path="url(#afad330399)"><g clip-path="url(#85b07d9080)"><g clip-path="url(#1e03d68d5b)"><path fill="#004aad" d="M 58.445312 292.757812 L 251.738281 253.972656 L 350.175781 13.839844 L 408.152344 223.164062 L 737.21875 154.957031 L 447.621094 384.960938 L 545.375 759.347656 L 291.230469 513.777344 L 63.777344 697.296875 L 183.523438 409.914062 Z M 284.109375 288.152344 L 174.84375 306.515625 L 248.9375 363.121094 L 199.617188 491.25 L 304.425781 407.714844 L 402.875 487.8125 L 373.675781 350.273438 L 492.566406 251.613281 L 357.144531 272.464844 L 332.066406 168.105469 Z M 284.109375 288.152344 " fill-opacity="1" fill-rule="evenodd"/></g></g></g></svg>