<svg xmlns="http://www.w3.org/2000/svg" xmlns:xlink="http://www.w3.org/1999/xlink" width="2000" zoomAndPan="magnify" viewBox="0 0 1500 666.749997" height="889" preserveAspectRatio="xMidYMid meet" version="1.0"><defs><g/><clipPath id="15e086804f"><path d="M 0.28125 0 L 1490 0 L 1490 666.5 L 0.28125 666.5 Z M 0.28125 0 " clip-rule="nonzero"/></clipPath><clipPath id="2943361b84"><path d="M 8 1 L 607 1 L 607 658 L 8 658 Z M 8 1 " clip-rule="nonzero"/></clipPath><clipPath id="9445ffa331"><path d="M -147.527344 147.804688 L 529.5625 -91.644531 L 754.714844 545.023438 L 77.625 784.46875 Z M -147.527344 147.804688 " clip-rule="nonzero"/></clipPath><clipPath id="509ede4392"><path d="M -147.527344 147.804688 L 529.5625 -91.644531 L 754.714844 545.023438 L 77.625 784.46875 Z M -147.527344 147.804688 " clip-rule="nonzero"/></clipPath><clipPath id="a1aae9365b"><rect x="0" width="1490" y="0" height="667"/></clipPath></defs><g clip-path="url(#15e086804f)"><g transform="matrix(1, 0, 0, 1, 0.000000000000000056, 0.0000000000000398)"><g clip-path="url(#a1aae9365b)"><g fill="#004aad" fill-opacity="1"><g transform="translate(419.601157, 571.578886)"><g><path d="M 145.828125 5.203125 C 119.972656 5.203125 97.59375 0.382812 78.6875 -9.25 C 59.789062 -18.894531 45.421875 -31.53125 35.578125 -47.15625 C 25.742188 -62.78125 20.828125 -79.273438 20.828125 -96.640625 L 20.828125 -100.6875 L 108.203125 -100.6875 L 108.203125 -97.21875 C 108.203125 -88.34375 111.675781 -80.53125 118.625 -73.78125 C 125.570312 -67.03125 135.410156 -63.65625 148.140625 -63.65625 C 158.941406 -63.65625 167.617188 -66.257812 174.171875 -71.46875 C 180.734375 -76.675781 184.015625 -83.519531 184.015625 -92 C 184.015625 -99.71875 180.925781 -105.890625 174.75 -110.515625 C 168.582031 -115.148438 160.867188 -118.238281 151.609375 -119.78125 L 118.625 -126.71875 C 96.25 -130.582031 75.609375 -139.550781 56.703125 -153.625 C 37.804688 -167.707031 28.359375 -189.410156 28.359375 -218.734375 C 28.359375 -248.429688 39.0625 -271.476562 60.46875 -287.875 C 81.875 -304.269531 109.359375 -312.46875 142.921875 -312.46875 C 168.003906 -312.46875 189.609375 -308.03125 207.734375 -299.15625 C 225.867188 -290.289062 239.5625 -278.625 248.8125 -264.15625 C 258.070312 -249.6875 262.703125 -234.351562 262.703125 -218.15625 L 262.703125 -215.265625 L 175.328125 -215.265625 L 175.328125 -217 C 175.328125 -224.707031 172.429688 -231.84375 166.640625 -238.40625 C 160.859375 -244.96875 151.988281 -248.25 140.03125 -248.25 C 130 -248.25 121.992188 -245.835938 116.015625 -241.015625 C 110.035156 -236.191406 107.046875 -229.535156 107.046875 -221.046875 C 107.046875 -206.003906 119.582031 -196.164062 144.65625 -191.53125 L 180.546875 -183.4375 C 204.847656 -178.03125 225.390625 -168.191406 242.171875 -153.921875 C 258.953125 -139.648438 267.34375 -119.394531 267.34375 -93.15625 C 267.34375 -73.101562 262.035156 -55.648438 251.421875 -40.796875 C 240.816406 -25.941406 226.253906 -14.5625 207.734375 -6.65625 C 189.222656 1.25 168.585938 5.203125 145.828125 5.203125 Z M 145.828125 5.203125 "/></g></g></g><g fill="#004aad" fill-opacity="1"><g transform="translate(685.202414, 571.578886)"><g><path d="M 154.5 -236.09375 L 154.5 -113.421875 C 154.5 -99.910156 155.171875 -89.972656 156.515625 -83.609375 C 157.867188 -77.242188 161.726562 -72.132812 168.09375 -68.28125 C 174.457031 -64.425781 184.78125 -62.5 199.0625 -62.5 C 206.382812 -62.5 213.90625 -63.269531 221.625 -64.8125 L 221.625 -2.3125 C 217.769531 -1.539062 210.054688 -0.675781 198.484375 0.28125 C 186.910156 1.25 175.335938 1.734375 163.765625 1.734375 C 133.671875 1.734375 111.390625 -2.695312 96.921875 -11.5625 C 82.453125 -20.4375 73.484375 -31.238281 70.015625 -43.96875 C 66.546875 -56.707031 64.8125 -73.300781 64.8125 -93.75 L 64.8125 -236.09375 L 15.625 -236.09375 L 15.625 -306.109375 L 64.8125 -306.109375 L 64.8125 -405.0625 L 154.5 -405.0625 L 154.5 -306.109375 L 221.625 -306.109375 L 221.625 -236.09375 Z M 154.5 -236.09375 "/></g></g></g><g fill="#004aad" fill-opacity="1"><g transform="translate(914.348615, 571.578886)"><g><path d="M 137.140625 5.203125 C 99.335938 5.203125 70.113281 -9.164062 49.46875 -37.90625 C 28.832031 -66.644531 18.515625 -105.125 18.515625 -153.34375 C 18.515625 -201.945312 29.125 -240.617188 50.34375 -269.359375 C 71.5625 -298.097656 100.878906 -312.46875 138.296875 -312.46875 C 164.140625 -312.46875 184.003906 -306.773438 197.890625 -295.390625 C 211.785156 -284.015625 221.429688 -272.539062 226.828125 -260.96875 L 231.46875 -260.96875 L 231.46875 -306.109375 L 322.3125 -306.109375 L 322.3125 0 L 231.46875 0 L 231.46875 -49.1875 L 226.828125 -49.1875 C 221.046875 -36.84375 211.113281 -24.691406 197.03125 -12.734375 C 182.945312 -0.773438 162.984375 5.203125 137.140625 5.203125 Z M 171.28125 -67.125 C 191.726562 -67.125 206.96875 -75.707031 217 -92.875 C 227.03125 -110.039062 232.046875 -130.390625 232.046875 -153.921875 C 232.046875 -177.066406 227.03125 -197.222656 217 -214.390625 C 206.96875 -231.554688 191.726562 -240.140625 171.28125 -240.140625 C 150.0625 -240.140625 134.53125 -231.75 124.6875 -214.96875 C 114.851562 -198.1875 109.9375 -178.03125 109.9375 -154.5 C 109.9375 -130.582031 114.851562 -110.039062 124.6875 -92.875 C 134.53125 -75.707031 150.0625 -67.125 171.28125 -67.125 Z M 171.28125 -67.125 "/></g></g></g><g fill="#004aad" fill-opacity="1"><g transform="translate(1251.124259, 571.578886)"><g><path d="M 32.984375 -306.109375 L 122.671875 -306.109375 L 122.671875 -257.5 L 127.296875 -257.5 C 131.929688 -271 141.09375 -282.472656 154.78125 -291.921875 C 168.476562 -301.378906 186.320312 -306.109375 208.3125 -306.109375 C 214.875 -306.109375 221.046875 -305.53125 226.828125 -304.375 L 222.78125 -221.625 C 213.90625 -224.707031 203.679688 -226.25 192.109375 -226.25 C 167.804688 -226.25 150.15625 -220.078125 139.15625 -207.734375 C 128.164062 -195.390625 122.671875 -174.945312 122.671875 -146.40625 L 122.671875 0 L 32.984375 0 Z M 32.984375 -306.109375 "/></g></g></g><g clip-path="url(#2943361b84)"><g clip-path="url(#9445ffa331)"><g clip-path="url(#509ede4392)"><path fill="#004aad" d="M 8.839844 247.144531 L 178.910156 213.019531 L 265.523438 1.738281 L 316.53125 185.910156 L 606.0625 125.898438 L 351.261719 328.269531 L 437.269531 657.671875 L 213.660156 441.605469 L 13.53125 603.082031 L 118.890625 350.226562 Z M 207.394531 243.089844 L 111.253906 259.25 L 176.449219 309.054688 L 133.054688 421.789062 L 225.269531 348.289062 L 311.890625 418.765625 L 286.199219 297.746094 L 390.804688 210.945312 L 271.652344 229.289062 L 249.589844 137.46875 Z M 207.394531 243.089844 " fill-opacity="1" fill-rule="evenodd"/></g></g></g></g></g></g></svg>